<?xml version="1.0" standalone="no"?>
<svg xmlns="http://www.w3.org/2000/svg" viewBox="0 0 177.928 49.35849056603774" width="177.928" height="49.35849056603774"><rect fill="none" stroke="#fea701" stroke-width="3" width="174.928" height="46.35849056603774" x="1.5" y="1.5"></rect><g fill="#333333" color="#333333" transform="translate(12, 12) scale(0.5283019)"><svg width="53.0" height="48.0" x="0.0" y="0.0" viewBox="0 0 53 48"><path fill="currentColor" fill-rule="evenodd" d="M14.18 0L0 8.432v16.864l14.18 8.435L24 27.846v11.72L38.181 48l14.181-8.434V22.704l-14.181-8.433-9.818 5.883V8.432L14.18 0zM4.364 22.814V10.915l9.817-5.84L24 10.915v11.853l-9.819 5.885-9.817-5.839zm23.999 14.27V25.23l9.818-5.884 9.818 5.837v11.9L38.18 42.92l-9.818-5.837z"></path></svg></g><path fill="#333333" fill-rule="nonzero" d="M2.54 19.44L0 19.44L4.13 0L6.74 0L10.90 19.44L8.33 19.44L7.44 14.54L3.48 14.54L2.54 19.44ZM5.45 3.84L3.84 12.60L7.08 12.60L5.45 3.84ZM15.22 19.44L12.65 19.44L12.65 5.57L15.22 5.57L15.22 6.94Q15.91 6.29 16.75 5.83Q17.59 5.38 18.60 5.38L18.60 5.38Q19.44 5.38 19.88 5.81Q20.33 6.24 20.51 6.89Q20.69 7.54 20.69 8.21L20.69 8.21L20.69 19.44L18.12 19.44L18.12 8.95Q18.12 8.21 17.90 7.80Q17.69 7.39 17.02 7.39L17.02 7.39Q16.58 7.39 16.12 7.64Q15.65 7.90 15.22 8.26L15.22 8.26L15.22 19.44ZM26.88 19.63L26.88 19.63Q25.80 19.63 25.14 19.22Q24.48 18.82 24.18 18.07Q23.88 17.33 23.88 16.32L23.88 16.32L23.88 7.27L22.42 7.27L22.42 5.57L23.88 5.57L23.88 1.51L26.45 1.51L26.45 5.57L28.68 5.57L28.68 7.27L26.45 7.27L26.45 16.15Q26.45 16.97 26.71 17.32Q26.98 17.66 27.72 17.66L27.72 17.66Q27.91 17.66 28.16 17.64Q28.42 17.62 28.66 17.59L28.66 17.59L28.66 19.49Q28.18 19.56 27.77 19.60Q27.36 19.63 26.88 19.63ZM34.39 19.63L34.39 19.63Q32.86 19.63 31.97 19.01Q31.08 18.38 30.71 17.23Q30.34 16.08 30.34 14.52L30.34 14.52L30.34 10.49Q30.34 8.93 30.71 7.78Q31.08 6.62 31.97 6.00Q32.86 5.38 34.39 5.38L34.39 5.38Q35.93 5.38 36.80 6.00Q37.68 6.62 38.05 7.78Q38.42 8.93 38.42 10.49L38.42 10.49L38.42 14.52Q38.42 16.08 38.05 17.23Q37.68 18.38 36.80 19.01Q35.93 19.63 34.39 19.63ZM34.39 17.74L34.39 17.74Q35.14 17.74 35.44 17.30Q35.74 16.87 35.80 16.16Q35.86 15.46 35.86 14.69L35.86 14.69L35.86 10.34Q35.86 9.55 35.80 8.86Q35.74 8.16 35.44 7.72Q35.14 7.27 34.39 7.27L34.39 7.27Q33.65 7.27 33.34 7.72Q33.02 8.16 32.96 8.86Q32.90 9.55 32.90 10.34L32.90 10.34L32.90 14.69Q32.90 15.46 32.96 16.16Q33.02 16.87 33.34 17.30Q33.65 17.74 34.39 17.74ZM43.51 19.44L40.94 19.44L40.94 5.57L43.51 5.57L43.51 19.44ZM43.51 3.50L40.94 3.50L40.94 0.82L43.51 0.82L43.51 3.50ZM48.84 19.44L46.27 19.44L46.27 5.57L48.84 5.57L48.84 6.94Q49.54 6.29 50.38 5.83Q51.22 5.38 52.22 5.38L52.22 5.38Q53.06 5.38 53.51 5.81Q53.95 6.24 54.13 6.89Q54.31 7.54 54.31 8.21L54.31 8.21L54.31 19.44L51.74 19.44L51.74 8.95Q51.74 8.21 51.53 7.80Q51.31 7.39 50.64 7.39L50.64 7.39Q50.21 7.39 49.74 7.64Q49.27 7.90 48.84 8.26L48.84 8.26L48.84 19.44ZM60.65 19.63L60.65 19.63Q59.02 19.63 58.13 19.00Q57.24 18.36 56.89 17.12Q56.54 15.89 56.54 14.09L56.54 14.09L56.54 10.92Q56.54 9.07 56.90 7.85Q57.26 6.62 58.16 6.00Q59.06 5.38 60.65 5.38L60.65 5.38Q62.40 5.38 63.23 6.10Q64.06 6.82 64.32 8.17Q64.58 9.53 64.58 11.42L64.58 11.42L64.58 12.55L59.11 12.55L59.11 15.34Q59.11 16.18 59.27 16.70Q59.42 17.23 59.77 17.48Q60.12 17.74 60.67 17.74L60.67 17.74Q61.25 17.74 61.55 17.46Q61.85 17.18 61.96 16.67Q62.06 16.15 62.06 15.46L62.06 15.46L62.06 14.62L64.56 14.62L64.56 15.14Q64.56 17.23 63.67 18.43Q62.78 19.63 60.65 19.63ZM59.11 10.42L59.11 11.16L62.06 11.16L62.06 9.91Q62.06 9.05 61.97 8.46Q61.87 7.87 61.57 7.57Q61.27 7.27 60.62 7.27L60.62 7.27Q60 7.27 59.68 7.56Q59.35 7.85 59.23 8.53Q59.11 9.22 59.11 10.42L59.11 10.42ZM72.58 19.90L71.28 19.90L71.28 17.95Q72.17 17.95 72.72 17.83Q73.27 17.71 73.57 17.40Q73.87 17.09 73.99 16.50Q74.11 15.91 74.11 15L74.11 15L74.11 0L76.80 0L76.80 15.05Q76.80 16.73 76.44 17.80Q76.08 18.86 75.17 19.38Q74.26 19.90 72.58 19.90L72.58 19.90ZM82.13 19.63L82.13 19.63Q81.31 19.63 80.69 19.16Q80.06 18.70 79.70 17.96Q79.34 17.23 79.34 16.42L79.34 16.42Q79.34 15.12 79.78 14.23Q80.21 13.34 80.96 12.73Q81.72 12.12 82.72 11.66Q83.71 11.21 84.82 10.78L84.82 10.78L84.82 9.79Q84.82 8.95 84.72 8.40Q84.62 7.85 84.32 7.57Q84.02 7.30 83.42 7.30L83.42 7.30Q82.90 7.30 82.57 7.54Q82.25 7.78 82.10 8.22Q81.96 8.66 81.96 9.26L81.96 9.26L81.96 9.96L79.42 9.86Q79.46 7.56 80.47 6.47Q81.48 5.38 83.59 5.38L83.59 5.38Q85.66 5.38 86.52 6.50Q87.38 7.63 87.38 9.77L87.38 9.77L87.38 16.10Q87.38 16.75 87.42 17.35Q87.46 17.95 87.52 18.47Q87.58 18.98 87.62 19.44L87.62 19.44L85.27 19.44Q85.20 19.06 85.09 18.47Q84.98 17.88 84.94 17.40L84.94 17.40Q84.70 18.22 84.01 18.92Q83.33 19.63 82.13 19.63ZM83.14 17.42L83.14 17.42Q83.52 17.42 83.86 17.21Q84.19 16.99 84.46 16.72Q84.72 16.44 84.82 16.27L84.82 16.27L84.82 12.34Q84.22 12.67 83.69 13.01Q83.16 13.34 82.76 13.72Q82.37 14.09 82.14 14.56Q81.91 15.02 81.91 15.62L81.91 15.62Q81.91 16.46 82.22 16.94Q82.54 17.42 83.14 17.42ZM92.42 19.44L89.86 19.44L89.86 5.57L92.42 5.57L92.42 6.94Q93.12 6.29 93.96 5.83Q94.80 5.38 95.81 5.38L95.81 5.38Q96.65 5.38 97.09 5.81Q97.54 6.24 97.72 6.89Q97.90 7.54 97.90 8.21L97.90 8.21L97.90 19.44L95.33 19.44L95.33 8.95Q95.33 8.21 95.11 7.80Q94.90 7.39 94.22 7.39L94.22 7.39Q93.79 7.39 93.32 7.64Q92.86 7.90 92.42 8.26L92.42 8.26L92.42 19.44ZM103.13 19.44L100.56 19.44L100.56 5.57L103.13 5.57L103.13 19.44ZM103.13 3.50L100.56 3.50L100.56 0.82L103.13 0.82L103.13 3.50ZM108.46 19.44L105.89 19.44L105.89 5.57L108.46 5.57L108.46 6.94Q109.15 6.29 109.99 5.83Q110.83 5.38 111.84 5.38L111.84 5.38Q112.68 5.38 113.12 5.81Q113.57 6.24 113.75 6.89Q113.93 7.54 113.93 8.21L113.93 8.21L113.93 19.44L111.36 19.44L111.36 8.95Q111.36 8.21 111.14 7.80Q110.93 7.39 110.26 7.39L110.26 7.39Q109.82 7.39 109.36 7.64Q108.89 7.90 108.46 8.26L108.46 8.26L108.46 19.44Z" transform="translate(52 14.959245283018868)"></path></svg>